HIERARCHY
ROOT root
{
	OFFSET	0	13.1	24.9
	CHANNELS 6  Xposition Yposition Zposition Xrotation Yrotation Zrotation
	JOINT spine_1
	{
		OFFSET	0	9.99999	0
		CHANNELS 3  Xrotation Yrotation Zrotation
		JOINT spine_2
		{
			OFFSET	0	112	-10
			CHANNELS 3  Xrotation Yrotation Zrotation
			JOINT spine_3
			{
				OFFSET	0	206.5	19.3
				CHANNELS 3  Xrotation Yrotation Zrotation
				JOINT spine_4
				{
					OFFSET	0	110.4	14.6
					CHANNELS 3  Xrotation Yrotation Zrotation
					JOINT neck_1
					{
						OFFSET	0	71.8	-50.3
						CHANNELS 3  Xrotation Yrotation Zrotation
						JOINT neck_2
						{
							OFFSET	0	86.2	-25.8
							CHANNELS 3  Xrotation Yrotation Zrotation
							JOINT head_ee
							{
								OFFSET	0	179.8	-8.7
								CHANNELS 3  Xrotation Yrotation Zrotation
								End Site
								{
									OFFSET	1	0	0
								}
							}
						}
					}
					JOINT left_clavicle
					{
						OFFSET	-43.2	22.4	-70.8
						CHANNELS 3  Xrotation Yrotation Zrotation
						JOINT left_shoulder
						{
							OFFSET	-93.9	-5.79999	48.7
							CHANNELS 3  Xrotation Yrotation Zrotation
							JOINT left_elbow
							{
								OFFSET	-291.4	-30.8	15.2
								CHANNELS 3  Xrotation Yrotation Zrotation
								JOINT left_lowarm_twist
								{
									OFFSET	-110.7	-3.89999	13.6
									CHANNELS 3  Xrotation Yrotation Zrotation
									JOINT left_hand
									{
										OFFSET	-110.7	-3.89999	13.6
										CHANNELS 3  Xrotation Yrotation Zrotation
										JOINT left_ee
										{
											OFFSET	-80.8	-5.10001	12.1
											CHANNELS 3  Xrotation Yrotation Zrotation
											End Site
											{
												OFFSET	1	0	0
											}
										}
									}
								}
							}
						}
					}
					JOINT right_clavicle
					{
						OFFSET	43.2	22.4	-70.8
						CHANNELS 3  Xrotation Yrotation Zrotation
						JOINT right_shoulder
						{
							OFFSET	93.9	-5.79999	48.7
							CHANNELS 3  Xrotation Yrotation Zrotation
							JOINT right_elbow
							{
								OFFSET	291.4	-30.8	15.2
								CHANNELS 3  Xrotation Yrotation Zrotation
								JOINT right_lowarm_twist
								{
									OFFSET	110.7	-3.89999	13.6
									CHANNELS 3  Xrotation Yrotation Zrotation
									JOINT right_hand
									{
										OFFSET	110.7	-3.89999	13.6
										CHANNELS 3  Xrotation Yrotation Zrotation
										JOINT right_ee
										{
											OFFSET	80.8	-5.10001	12.1
											CHANNELS 3  Xrotation Yrotation Zrotation
											End Site
											{
												OFFSET	1	0	0
											}
										}
									}
								}
							}
						}
					}
				}
			}
		}
	}
	JOINT left_hip
	{
		OFFSET	-82.8	-127.5	0.300001
		CHANNELS 3  Xrotation Yrotation Zrotation
		JOINT left_knee
		{
			OFFSET	-28.2	-396.7	2.2
			CHANNELS 3  Xrotation Yrotation Zrotation
			JOINT left_ankle
			{
				OFFSET	-11.7	-411.3	35.4
				CHANNELS 3  Xrotation Yrotation Zrotation
				JOINT left_toes
				{
					OFFSET	0	-60	-88.6
					CHANNELS 3  Xrotation Yrotation Zrotation
					JOINT left_foot_ee
					{
						OFFSET	-22.5	-16.5	-42.2
						CHANNELS 3  Xrotation Yrotation Zrotation
						End Site
						{
							OFFSET	1	0	0
						}
					}
				}
			}
		}
	}
	JOINT right_hip
	{
		OFFSET	82.8	-127.5	0.300001
		CHANNELS 3  Xrotation Yrotation Zrotation
		JOINT right_knee
		{
			OFFSET	28.2	-396.7	2.2
			CHANNELS 3  Xrotation Yrotation Zrotation
			JOINT right_ankle
			{
				OFFSET	11.7	-411.3	35.4
				CHANNELS 3  Xrotation Yrotation Zrotation
				JOINT right_toes
				{
					OFFSET	0	-60	-88.6
					CHANNELS 3  Xrotation Yrotation Zrotation
					JOINT right_foot_ee
					{
						OFFSET	22.5	-16.5	-42.2
						CHANNELS 3  Xrotation Yrotation Zrotation
						End Site
						{
							OFFSET	1	0	0
						}
					}
				}
			}
		}
	}
}
MOTION
Frames: 8
Frame Time: 0.02
1372.05 701.618 -1475.22 -9.05218130377 21.497822641 7.36487969999 4.2205 -0.251236 -1.80455 4.22231 -0.135918 -1.81687 4.22546 0.115336 -1.81829 4.22089 -0.173229 -1.8137 -8.1957 5.15024 -1.06919 -8.20306 10.373 0.0806649 -0.0 0.0 -0.0 7.72991 -2.25915 15.0615 -2.82091 -32.9044 50.7503 1.71248 -40.305 0.6285 28.0656 0.122079 -3.54745 1.94663 -14.8474 6.76732 -0.0 0.0 -0.0 7.51843 -8.66107 -14.3786 -23.1049 -13.5624 -59.8418 0.361658 10.1573 -0.0321414 19.4648 -0.270336 2.45982 3.16164 22.6029 -11.1969 0.0 0.0 0.0 1.65858 19.5261 -4.84225 -20.1495 0.293832 3.06223 40.5372 3.15442 -4.90622 -29.1201 0.0 0.0 -0.0 0.0 -0.0 41.1759 25.8326 -12.2837 -5.502 -0.187113 -0.823339 16.2857 -10.044 2.26242 5.07741 -0.0 -0.0 0.0 0.0 0.0 
1359.46902012 701.466 -1502.54347242 -8.94979734435 22.4889923843 7.01092267708 4.26434 -0.375114 -1.64208 4.2658 -0.269879 -1.66261 4.27267 -0.0400263 -1.68389 4.26885 -0.305427 -1.65645 -7.23858 5.38586 -0.71027 -7.23725 10.5266 0.402679 -0.0 0.0 -0.0 7.46892 -1.53763 14.5316 -4.91827 -32.4251 51.489 1.70753 -40.2232 0.625301 29.1169 0.0928045 -3.67855 1.88488 -15.4922 6.05939 -0.0 0.0 -0.0 7.69818 -10.3459 -14.6142 -24.3505 -10.5305 -59.2084 0.406094 11.3744 -0.0404422 20.1322 -0.264694 2.54488 2.94564 21.4915 -10.3226 0.0 0.0 0.0 -0.581428 21.664 -4.9119 -18.782 0.308144 2.8529 39.4208 0.188421 -4.82444 -28.7066 0.0 0.0 -0.0 0.0 -0.0 41.0612 25.412 -12.588 -10.3962 -0.286487 -1.56758 9.27646 -13.2732 1.32758 4.70018 -0.0 -0.0 0.0 0.0 0.0 
1347.06387683 701.91 -1534.71839199 -9.08441641519 23.7584969112 7.31707933097 4.64307 -0.366697 -1.51172 4.6443 -0.26977 -1.53199 4.65057 -0.068033 -1.55406 4.64733 -0.312586 -1.52383 -7.35552 4.76194 -2.03617 -7.34197 10.3187 -1.03999 -0.0 0.0 -0.0 7.42453 -0.91148 14.4409 -7.63843 -32.5523 52.4037 1.67915 -39.7505 0.607062 26.4727 0.161838 -3.34786 2.08928 -13.8412 8.18758 -0.0 0.0 -0.0 7.66192 -11.7198 -14.4644 -21.092 -14.9564 -59.0389 0.291689 8.22219 -0.0209654 19.815 -0.267499 2.50446 2.9054 21.0969 -10.2513 0.0 0.0 0.0 -0.564223 20.3753 -6.41423 -21.646 0.272449 3.29085 37.8466 -0.0540571 -4.68621 -28.6948 0.0 0.0 -0.0 0.0 -0.0 40.0812 25.2182 -12.8772 -13.2128 -0.314748 -1.99878 13.7332 -13.3295 1.93507 5.65694 -0.0 -0.0 0.0 0.0 0.0 
1348.06594499 701.91 -1535.12934906 -9.01930959347 22.8088437575 7.15237599431 4.64307 -0.366697 -1.51172 4.6443 -0.26977 -1.53199 4.65057 -0.068033 -1.55406 4.64733 -0.312586 -1.52383 -7.35552 4.76194 -2.03617 -7.34197 10.3187 -1.03999 -0.0 0.0 -0.0 7.42453 -0.91148 14.4409 -7.63843 -32.5523 52.4037 1.67915 -39.7505 0.607062 26.4727 0.161838 -3.34786 2.08928 -13.8412 8.18758 -0.0 0.0 -0.0 7.66192 -11.7198 -14.4644 -21.092 -14.9564 -59.0389 0.291689 8.22219 -0.0209654 19.815 -0.267499 2.50446 2.9054 21.0969 -10.2513 0.0 0.0 0.0 -0.564223 20.3753 -6.41423 -21.646 0.272449 3.29085 37.8466 -0.0540571 -4.68621 -28.6948 0.0 0.0 -0.0 0.0 -0.0 40.0812 25.2182 -12.8772 -13.2128 -0.314748 -1.99878 13.7332 -13.3295 1.93507 5.65694 -0.0 -0.0 0.0 0.0 0.0 
1322.48433206 717.006 -1588.01814432 -7.29587894188 22.9973179769 5.81932035604 4.62637 -0.0893347 -1.30009 4.62732 -0.00643263 -1.30314 4.62676 0.163877 -1.29281 4.62443 -0.042337 -1.30247 -9.39147 3.94082 -2.72615 -9.38782 9.26684 -1.72845 -0.0 0.0 -0.0 7.71839 2.21134 14.9848 -12.5495 -30.7754 54.3584 1.34872 -33.7458 0.409093 23.4992 0.221143 -2.9727 1.71597 -12.4159 6.29361 -0.0 0.0 -0.0 8.0515 -11.998 -15.1322 -14.9642 -15.5153 -58.1381 0.211819 5.99021 -0.0110828 20.1342 -0.264675 2.54513 2.74889 17.3669 -11.022 0.0 0.0 0.0 3.05513 15.8858 -7.58561 -33.4717 -0.104489 5.06339 36.9269 -4.55503 -4.6504 -30.0563 0.0 0.0 -0.0 0.0 -0.0 36.0163 24.2458 -13.7011 -16.7763 -0.320089 -2.54541 11.7381 -19.281 1.69216 5.0858 -0.0 -0.0 0.0 0.0 0.0 
1325.13855009 717.006 -1589.14757641 -7.22623009807 21.6666424746 5.63603315962 4.62637 -0.0893347 -1.30009 4.62732 -0.00643263 -1.30314 4.62676 0.163877 -1.29281 4.62443 -0.042337 -1.30247 -9.39147 3.94082 -2.72615 -9.38782 9.26684 -1.72845 -0.0 0.0 -0.0 7.71839 2.21134 14.9848 -12.5495 -30.7754 54.3584 1.34872 -33.7458 0.409093 23.4992 0.221143 -2.9727 1.71597 -12.4159 6.29361 -0.0 0.0 -0.0 8.0515 -11.998 -15.1322 -14.9642 -15.5153 -58.1381 0.211819 5.99021 -0.0110828 20.1342 -0.264675 2.54513 2.74889 17.3669 -11.022 0.0 0.0 0.0 3.05513 15.8858 -7.58561 -33.4717 -0.104489 5.06339 36.9269 -4.55503 -4.6504 -30.0563 0.0 0.0 -0.0 0.0 -0.0 36.0163 24.2458 -13.7011 -16.7763 -0.320089 -2.54541 11.7381 -19.281 1.69216 5.0858 -0.0 -0.0 0.0 0.0 0.0 
1312.78873028 722.353 -1617.0500984 -6.26848198303 20.338669107 5.09322698364 4.37034 0.0261494 -1.23842 4.37118 0.104894 -1.23425 4.36835 0.270726 -1.20875 4.36632 0.0764436 -1.23634 -9.43934 3.6921 -3.32845 -9.42476 9.21149 -2.37552 -0.0 0.0 -0.0 7.69242 3.16797 14.9109 -14.483 -30.0607 55.5202 1.22141 -31.1748 0.340745 23.5062 0.221026 -2.97358 1.22486 -10.9612 3.60702 -0.0 0.0 -0.0 8.48443 -13.1547 -15.7966 -13.2817 -15.6026 -57.1851 0.353066 9.92079 -0.0306435 20.4362 -0.261795 2.5836 3.2443 15.1392 -15.4929 0.0 0.0 0.0 3.57031 13.9855 -7.62972 -36.3031 -0.248475 5.47379 36.7168 0.482489 -4.57861 -30.5298 0.0 0.0 -0.0 0.0 -0.0 34.1152 22.954 -14.2007 -19.854 -0.297348 -3.01702 18.7413 -18.867 2.62729 7.66417 -0.0 -0.0 0.0 0.0 0.0 
1306.37536784 722.781 -1635.71378801 -6.13255239286 18.7458546599 4.73059030215 4.22836 0.0623147 -1.18189 4.22913 0.13739 -1.17553 4.22581 0.297842 -1.14544 4.224 0.113216 -1.1781 -9.07629 4.44825 -3.25045 -9.06461 10.5831 -2.15142 -0.0 0.0 -0.0 7.43256 4.59318 14.3714 -15.368 -30.6664 56.4732 1.1212 -29.0474 0.290466 23.513 0.220912 -2.97445 1.29516 -11.9797 3.63967 -0.0 0.0 -0.0 8.67937 -12.783 -16.1735 -12.8151 -14.8139 -57.3671 0.369722 10.3789 -0.0335788 20.7744 -0.258329 2.62666 3.27691 14.8836 -15.8435 0.0 0.0 0.0 4.75668 12.0573 -7.47959 -37.7013 -0.327038 5.67377 37.336 0.261074 -4.63736 -30.716 0.0 0.0 -0.0 0.0 -0.0 33.213 23.1274 -14.3072 -20.1215 -0.294176 -3.05794 18.3437 -17.7117 2.56572 6.7762 -0.0 -0.0 0.0 0.0 0.0 
